<?xml version="1.0" encoding="UTF-8"?>
<svg id="Layer_1" data-name="Layer 1" xmlns="http://www.w3.org/2000/svg" viewBox="0 0 384 384">
  <defs>
    <style>
      .cls-1 {
        fill: none;
      }
      .cls-2 {
        opacity:1;
      }
    </style>
  </defs>
  <path class="cls-1" d="M384,0v384H0V0h384ZM20.25,355.88V105h70.12c4.52,0,13.12-7.98,13.12-12.38V21.75h176.62c.19,0,2.94,1.6,3.32,1.93,2.12,1.9,2.78,5.45,3.04,8.21,1.66,17.36-1.36,36.98.2,54.59,3.56,5.93,8.21,2.53,8.82-3.6.92-9.25,1.18-50.77-1.12-58.14-2.04-6.53-8.13-11.5-14.98-12.02H98.59s-2.63,1.11-2.63,1.11L12.41,97.53l-1.19,4.06v253.57c.73,8.07,7.09,15.46,15.38,16.13h252.81c11.18-1.35,15.46-9.49,16.13-19.87,1.89-29.51-1.49-61.05-.04-90.78-.09-5.05-3.97-7.17-8.27-4.52l-.77,2.22.03,93.78c-.5,4.32-1.38,8.35-5.97,9.78l-252.43.39c-3.31.41-7.31-3.45-7.84-6.41ZM122.79,52.66c-2.27.73-3.25,1.54-3.57,3.93-.8,5.98-.79,27.07,0,33.08.25,1.95,1.03,3.07,2.82,3.93l133.38.2,3.93-2.82.14-35.08-3.52-3.23H122.79ZM338.41,137.1c-.81-6.27,1.18-20.44-4.26-24.62-5.88-4.51-17.69.92-24.62-.14-6.35-4.19-11.49-16.64-20.2-15.45-6.95.95-11.91,11.78-17.6,15.45-7.23,1.04-19.58-4.75-25.35.91-4.68,4.6-2.48,17.79-3.74,24.01-5.06,3.78-18.32,9.44-19.12,16.19s9.62,15.16,12.55,21.05c-1.48,9.08-11.86,23.16.93,28.37l-29.43,50.87c-1.31,8.32,6.27,5.8,11.03,5.74,8.07-.12,16.19.01,24.25.19l13.76,24.86c2.27,3.07,6.08,2.33,8.03-.75l25.6-44.51,25.92,45.71c3.64,3.91,5.7,2.45,8.46-1.23,5.08-6.77,9.26-16.75,13.75-24.12,1.72-1.08,25.51.56,30.29-.08,3.33-.45,4.91-3.53,3.52-6.58l-27.95-49.37.06-1.03c12.89-4.47,2.12-19.17,1.03-28.19,3-6.2,13.65-14.37,12.27-21.56-1.2-6.25-14.25-12.03-19.19-15.71ZM132.49,179.74c1.14-1.07,2.41-3.7,2.53-5.35-1.24-16.38,1.58-34.96.02-51.06-.53-5.43-3.19-7.98-8.66-8.59-11.34-1.27-37.22-1.05-48.78-.03-5.98.53-8.8,2.53-9.37,8.63-1.14,12.16-1.18,38.2,0,50.32.63,6.53,4.02,8.09,10.14,8.61,12.19,1.04,33.51.9,45.81,0,2.77-.2,6.24-.55,8.34-2.54ZM156.54,125.41c-5.35,1.23-4.28,8.9,1.33,8.85,19.89-1.74,43.6,2.27,63.03,0,6.69-.78,6.36-8.47,0-9.03l-64.35.17ZM156.54,157.66c-4.57,1.05-4.91,7.62-.14,8.82h49.47c1.95-.32,3.05-2.29,3.34-4.11-.37-2.55-2.35-4.45-4.87-4.83l-47.79.12ZM74.8,199.68c-3.51.74-6.15,3.41-6.57,6.93-1.92,16.15,1.48,35.98,0,52.53.3,3.52,3.66,6.85,7.12,7.12,16.58-1.47,36.35,1.9,52.53,0,4.24-.5,6.77-3.83,7.14-7.86,1.49-16.18-1.2-34.62-.02-51.05-.53-4.39-3.47-7.34-7.88-7.88-15.97-1.92-35.95,1.33-52.34.19ZM155.78,210.16c-4.77,2.66-3.35,8.22,2.08,8.86,14.53,1.71,32.33-1.26,47.22-.06,5.4-.83,5.87-8.25.09-8.99l-49.38.2ZM156.54,242.41c-4.84,1.11-4.73,7.95.64,8.79,11.47,1.8,27.06-1.27,38.99.09,5.15-.2,5.69-8.09.69-9.02l-40.32.14ZM74.03,284.41c-2.53.57-5.81,4.23-5.8,6.95,1.47,16.58-1.9,36.35,0,52.53.5,4.24,3.83,6.77,7.86,7.14,12.33,1.14,38,1.15,50.31,0,5.72-.54,8.08-2.88,8.62-8.62,1.14-12.08,1.13-37.47,0-49.56-.36-3.81-1.34-6.01-4.72-8.03l-56.27-.41ZM155.78,294.91c-5.78,3.79-2.16,8.19,3.59,8.84,18.59,2.11,40.99-1.57,60,0,6.4-.12,9.56-7.18,2.29-9.04l-65.88.2ZM262.32,327.93c-.82-.83-2.75-.86-3.91-.96h-101.32c-6.16.78-5.07,8.94.77,9.04l102.94-.58c2.88-.76,3.23-5.78,1.52-7.5Z"/>
  <path d="M20.25,355.88c.53,2.96,4.53,6.82,7.84,6.41l252.43-.39c4.58-1.43,5.47-5.46,5.97-9.78l-.03-93.78.77-2.22c4.3-2.65,8.18-.53,8.27,4.52-1.45,29.73,1.93,61.27.04,90.78-.67,10.38-4.95,18.52-16.13,19.87H26.59c-8.29-.67-14.65-8.06-15.37-16.13V101.59s1.19-4.06,1.19-4.06L95.96,13.83l2.63-1.12h180.82c6.86.53,12.94,5.5,14.98,12.03,2.3,7.37,2.04,48.89,1.12,58.14-.61,6.13-5.26,9.53-8.82,3.6-1.55-17.61,1.46-37.23-.2-54.59-.26-2.76-.92-6.31-3.04-8.21-.37-.34-3.12-1.93-3.32-1.93H103.5v70.88c0,4.39-8.6,12.38-13.12,12.38H20.25v250.88ZM27,96h62.62c.96,0,4.88-3.92,4.88-4.88V28.5L27,96Z"/>
  <path d="M338.41,137.1c4.94,3.68,17.99,9.46,19.19,15.71,1.38,7.19-9.26,15.36-12.27,21.56,1.09,9.02,11.86,23.72-1.03,28.19l-.06,1.03,27.95,49.37c1.38,3.05-.2,6.13-3.52,6.58-4.79.64-28.57-.99-30.29.08-4.49,7.37-8.67,17.34-13.75,24.12-2.75,3.68-4.82,5.14-8.46,1.23l-25.92-45.71-25.6,44.51c-1.95,3.08-5.75,3.82-8.03.75l-13.76-24.86c-8.06-.18-16.18-.31-24.25-.19-4.76.07-12.34,2.58-11.03-5.74l29.43-50.87c-12.79-5.21-2.41-19.28-.93-28.37-2.93-5.89-13.34-14.35-12.55-21.05s14.05-12.4,19.12-16.19c1.26-6.22-.94-19.41,3.74-24.01,5.77-5.66,18.12.13,25.35-.91,5.69-3.67,10.65-14.5,17.6-15.45,8.71-1.19,13.86,11.26,20.2,15.45,6.92,1.06,18.74-4.38,24.62.14,5.44,4.18,3.45,18.35,4.26,24.62ZM328.49,119.25c-6.12.65-16.77,3.69-22.53,1.92-4.32-1.33-11.12-12.58-15.33-15.4-1.29,0-11.57,14.24-15.33,15.4-5.76,1.77-16.41-1.26-22.53-1.92-1.54,7.64,1.55,19.51-4.55,25.08-2.03,1.85-15.71,9.34-15.69,10.55,2.99,4.57,11.91,13.14,12.59,18.2.63,4.7-6.28,19.16-4.79,21.22.88,1.21,16.46,3.11,20.31,5.95,4.28,3.15,6.82,14.53,9.43,19.45,1.56,1.1,14.38-7.11,17.16-7.84,8.69-2.27,15.83,6.56,23.96,7.84,2.76-4.79,5.28-16.33,9.43-19.45,3.82-2.87,20.69-5.13,21.38-6.01-1.08-5.16-6.31-15.73-5.97-20.52s9.83-14.61,12.71-18.84c.02-1.31-13.69-8.72-15.69-10.54-6.23-5.7-2.83-17.34-4.55-25.08ZM219.75,250.5h26.62c3.14,0,10.79,17.44,12.95,20.79.47.73-.08,1.34,1.67.96l23.26-41.67-2.7-5.52c-7.1,3.43-13.82,7.51-19.2-1.04-2.44-3.88-4.83-13.66-7-16.25-.95-1.13-8.98-3.59-10.02-1.06l-25.58,43.79ZM334.88,250.5h25.12l-25.23-45.06-8.87,2.34c-3.63,6.59-5.7,21.22-15.14,21.47-4.56.12-19.73-9.89-21.26-8.73l30.38,52.49c1.52.31.91-.38,1.27-.96,3.43-5.59,7.43-14.84,11.21-19.54.54-.68,1.74-1.82,2.51-1.99Z"/>
  <path d="M122.79,52.66h133.18l3.52,3.23-.14,35.08-3.93,2.82-133.38-.2c-1.79-.85-2.57-1.98-2.82-3.93-.79-6.01-.8-27.1,0-33.08.32-2.39,1.3-3.19,3.57-3.93ZM250.5,61.5h-122.25v23.25h122.25v-23.25Z"/>
  <path d="M132.49,179.74c-2.1,1.98-5.57,2.34-8.34,2.54-12.3.89-33.62,1.04-45.81,0-6.11-.52-9.5-2.08-10.14-8.61-1.17-12.12-1.13-38.16,0-50.32.57-6.1,3.39-8.1,9.37-8.63,11.56-1.03,37.44-1.24,48.78.03,5.47.61,8.13,3.16,8.66,8.59,1.56,16.1-1.26,34.68-.02,51.06-.11,1.65-1.39,4.28-2.53,5.35ZM126,123.75h-48.75v49.5h48.75v-49.5Z"/>
  <path d="M74.03,284.41l56.27.41c3.38,2.02,4.36,4.22,4.72,8.03,1.13,12.09,1.14,37.47,0,49.56-.54,5.74-2.9,8.09-8.62,8.62-12.31,1.16-37.99,1.14-50.31,0-4.03-.37-7.36-2.91-7.86-7.14-1.9-16.18,1.47-35.96,0-52.53-.02-2.72,3.27-6.38,5.8-6.95ZM126,293.25h-48.75v48.75h48.75v-48.75Z"/>
  <path d="M74.8,199.68c16.39,1.13,36.37-2.12,52.34-.19,4.4.53,7.35,3.49,7.88,7.88-1.18,16.43,1.51,34.87.02,51.05-.37,4.03-2.91,7.36-7.14,7.86-16.18,1.9-35.96-1.47-52.53,0-3.46-.28-6.83-3.61-7.12-7.12,1.48-16.56-1.92-36.38,0-52.53.42-3.52,3.06-6.19,6.57-6.93ZM126,208.5h-48.75v48.75h48.75v-48.75Z"/>
  <path d="M262.32,327.93c1.72,1.72,1.37,6.74-1.52,7.5l-102.94.58c-5.84-.1-6.94-8.26-.77-9.05h101.32c1.16.11,3.09.14,3.91.97Z"/>
  <path d="M156.54,125.41l64.35-.17c6.36.56,6.69,8.25,0,9.03-19.43,2.27-43.14-1.74-63.03,0-5.6.05-6.68-7.62-1.33-8.85Z"/>
  <path d="M155.78,294.91l65.88-.2c7.27,1.86,4.11,8.92-2.29,9.04-19-1.57-41.41,2.11-60,0-5.75-.65-9.37-5.05-3.59-8.84Z"/>
  <path d="M155.78,210.16l49.38-.2c5.78.74,5.31,8.16-.09,8.99-14.89-1.2-32.69,1.77-47.22.06-5.43-.64-6.85-6.19-2.08-8.86Z"/>
  <path d="M156.54,157.66l47.79-.12c2.52.38,4.49,2.28,4.87,4.83-.29,1.82-1.38,3.79-3.34,4.11h-49.47c-4.77-1.21-4.43-7.77.14-8.82Z"/>
  <path d="M156.54,242.41l40.32-.14c5,.93,4.46,8.82-.69,9.02-11.93-1.36-27.53,1.72-38.99-.09-5.36-.84-5.48-7.68-.64-8.79Z"/>
  <path class="cls-1" d="M27,96L94.5,28.5v62.62c0,.96-3.92,4.88-4.88,4.88H27Z"/>
  <path class="cls-1" d="M328.49,119.25c1.72,7.74-1.68,19.38,4.55,25.08,2,1.83,15.71,9.24,15.69,10.54-2.88,4.23-12.38,14.12-12.71,18.84s4.89,15.37,5.97,20.52c-.68.88-17.56,3.14-21.38,6.01-4.15,3.12-6.67,14.66-9.43,19.45-8.13-1.28-15.28-10.11-23.96-7.84-2.78.73-15.6,8.94-17.16,7.84-2.62-4.92-5.16-16.3-9.43-19.45-3.85-2.84-19.43-4.74-20.31-5.95-1.49-2.05,5.42-16.52,4.79-21.22-.68-5.06-9.61-13.64-12.59-18.2-.02-1.2,13.66-8.69,15.69-10.55,6.11-5.57,3.01-17.44,4.55-25.08,6.12.65,16.77,3.69,22.53,1.92,3.76-1.16,14.04-15.4,15.33-15.4,4.22,2.82,11.02,14.07,15.33,15.4,5.76,1.77,16.41-1.26,22.53-1.92ZM285.58,128.46c-42.55,5.14-37.75,72.12,7.28,69.53,46.26-2.66,41.49-75.42-7.28-69.53Z"/>
  <path class="cls-1" d="M334.88,250.5c-.77.17-1.97,1.31-2.51,1.99-3.78,4.71-7.78,13.96-11.21,19.54-.36.58.25,1.27-1.27.96l-30.38-52.49c1.53-1.16,16.7,8.85,21.26,8.73,9.44-.25,11.51-14.88,15.14-21.47l8.87-2.34,25.23,45.06h-25.12Z"/>
  <path class="cls-1" d="M219.75,250.5l25.58-43.79c1.04-2.53,9.07-.07,10.02,1.06,2.17,2.58,4.56,12.37,7,16.25,5.38,8.55,12.09,4.47,19.2,1.04l2.7,5.52-23.26,41.67c-1.74.39-1.2-.23-1.67-.96-2.15-3.34-9.8-20.79-12.95-20.79h-26.62Z"/>
  <rect class="cls-1" x="128.25" y="61.5" width="122.25" height="23.25"/>
  <path class="cls-1" d="M126,123.75v49.5h-48.75v-49.5h48.75ZM82.68,146.43c-4.64,4.63,10.46,17.91,13.57,17.65,1.18-.1,3.26-1.64,4.27-2.43,2.34-1.84,19.41-19.12,19.9-20.6,1.36-4.19-1.16-7.98-5.65-6.41l-18.49,18.31c-2.22.39-8.44-11.66-13.59-6.52Z"/>
  <path class="cls-1" d="M126,293.25v48.75h-48.75v-48.75h48.75ZM114.54,303.89c-3.01.91-16.16,17.44-18.26,17.8-3.39-1.24-6.08-7.21-9.7-7.44s-6.02,3.27-4.43,6.73c.34.75,10.87,11.28,11.62,11.62,1.45.67,3.03.67,4.48,0l22.12-22.12c1.97-4.62-1.21-7.98-5.82-6.6Z"/>
  <path class="cls-1" d="M126,208.5v48.75h-48.75v-48.75h48.75ZM119.82,219.93c-1.65-1.65-4.72-.93-6.54.23-3.24,2.06-15.37,16.5-17.01,16.78-3.37-1.45-6.44-7.37-10.4-7.39-2.91-.01-4.78,3.49-4,6.15.35,1.2,11.83,12.34,13.03,12.55.91.16,1.92.12,2.81-.15,3.68-1.12,17.63-18.99,22.32-21.93,1.2-1.35.91-5.11-.22-6.24Z"/>
  <path d="M285.58,128.46c48.77-5.89,53.54,66.86,7.28,69.53-45.04,2.59-49.83-64.38-7.28-69.53ZM286.32,137.44c-31.79,4.35-26.53,54.91,7.23,51.47,33.24-3.39,28.88-56.42-7.23-51.47Z"/>
  <path d="M82.68,146.43c5.15-5.14,11.38,6.9,13.59,6.52l18.49-18.31c4.49-1.57,7.01,2.22,5.65,6.41-.48,1.49-17.55,18.76-19.9,20.6-1.01.79-3.08,2.34-4.27,2.43-3.12.26-18.21-13.02-13.57-17.65Z"/>
  <path d="M114.54,303.89c4.61-1.39,7.8,1.97,5.82,6.6l-22.12,22.12c-1.45.67-3.03.67-4.48,0-.75-.34-11.28-10.87-11.62-11.62-1.59-3.46.82-6.96,4.43-6.73s6.32,6.2,9.7,7.44c2.1-.37,15.26-16.9,18.26-17.8Z"/>
  <path d="M119.82,219.93c1.12,1.13,1.41,4.89.22,6.24-4.69,2.94-18.64,20.81-22.32,21.93-.89.27-1.89.31-2.81.15-1.2-.21-12.68-11.35-13.03-12.55-.78-2.66,1.09-6.16,4-6.15,3.96.02,7.03,5.93,10.4,7.39,1.64-.29,13.77-14.72,17.01-16.78,1.82-1.16,4.89-1.88,6.54-.23Z"/>
  <path class="cls-1" d="M286.32,137.44c36.1-4.94,40.46,48.09,7.23,51.47-33.76,3.44-39.02-47.12-7.23-51.47ZM272.43,157.68c-1.12,1.12-1.22,4.35-.54,5.81.33.7,8.95,11.36,9.72,12.02,2.26,1.96,4.55,1.98,6.77-.01l20.66-19.83c2.52-4.34-1.33-8.81-5.85-6.6l-17.82,16.67c-2.5-3.06-8.13-12.87-12.95-8.06Z"/>
  <path d="M272.43,157.68c4.81-4.81,10.45,4.99,12.95,8.06l17.82-16.67c4.52-2.21,8.37,2.25,5.85,6.6l-20.66,19.83c-2.21,2-4.5,1.97-6.77.01-.77-.66-9.4-11.32-9.72-12.02-.68-1.46-.58-4.69.54-5.81Z"/>
</svg>