<?xml version="1.0" encoding="UTF-8"?>
<svg id="Layer_1" data-name="Layer 1" xmlns="http://www.w3.org/2000/svg" viewBox="0 0 48 48">
  <defs>
    <style>
      .cls-1 {
        fill: none;
      }
      .cls-2 {
        opacity:1;
      }
    </style>
  </defs>
  <path d="M.02,21.47C.83,8.76,13.34.67,25.37,1.21c11.04.5,21.89,8.72,22.63,20.25v2.62l-.51,3.19c-3.48,14.21-20.29,20.55-33.26,15.28-3.31,1.71-6.87,2.95-10.53,3.72-.68.14-2.57.6-3.13.47-.31-.07-.36-.33-.54-.54v-.47c2.74-3.01,3.37-7.29,3.8-11.21-1.64-2.52-2.95-5.2-3.47-8.2L.02,24c.04-.83-.05-1.7,0-2.53ZM12.46,19.62c-4.14.44-3.56,6.93.9,6.34,3.82-.51,3.32-6.79-.9-6.34ZM23.71,19.62c-4.17.41-3.65,6.86.81,6.34,3.87-.45,3.37-6.74-.81-6.34ZM34.86,19.62c-4.15.44-3.56,6.93.9,6.34,3.81-.51,3.31-6.78-.9-6.34Z"/>
  <path class="cls-1" d="M.02,21.47V0h47.98v21.47c-.74-11.53-11.59-19.75-22.63-20.25C13.34.67.83,8.76.02,21.47Z"/>
  <path class="cls-1" d="M48,24.09v23.91H.02v-1.78c.18.21.23.47.54.54.56.13,2.46-.33,3.13-.47,3.66-.76,7.22-2.01,10.53-3.72,12.97,5.27,29.79-1.07,33.26-15.28l.51-3.19Z"/>
  <path class="cls-1" d="M.02,45.75v-21.75l.33,2.35c.52,2.99,1.84,5.68,3.47,8.2-.43,3.91-1.06,8.2-3.8,11.21Z"/>
  <path class="cls-1" d="M12.46,19.62c4.22-.45,4.72,5.83.9,6.34-4.46.59-5.04-5.9-.9-6.34Z"/>
  <path class="cls-1" d="M34.86,19.62c4.21-.44,4.72,5.83.9,6.34-4.46.59-5.06-5.9-.9-6.34Z"/>
  <path class="cls-1" d="M23.71,19.62c4.18-.41,4.68,5.89.81,6.34-4.46.52-4.98-5.93-.81-6.34Z"/>
</svg>