<?xml version="1.0" encoding="UTF-8"?>
<svg id="Layer_1" data-name="Layer 1" xmlns="http://www.w3.org/2000/svg" viewBox="0 0 384 384">
  <defs>
    <style>
      .cls-1 {
        fill: none;
      }
      .cls-2 {
        opacity:1;
      }
    </style>
  </defs>
  <path class="cls-1" d="M384,0v384H0V0h384ZM181.35,24.22C49.43,32.47-22.04,184.61,56.71,291.67c71.75,97.55,220.66,88.88,280.92-15.91C404.45,159.56,314.43,15.89,181.35,24.22Z"/>
  <path d="M181.35,24.22c133.09-8.33,223.11,135.34,156.28,251.53-60.27,104.79-209.17,113.46-280.92,15.91C-22.04,184.61,49.43,32.47,181.35,24.22ZM249.55,120.18l-87.33,37.17-3.98,3.52-37.73,87.52c-2.99,9.31,6.47,18.39,15.65,14.9,26.15-12.36,54.32-21.97,80.34-34.41,2.77-1.32,5.97-2.32,8.15-4.6,2-2.09,2.99-5.19,4.23-7.77,12.68-26.52,22.66-55.25,34.94-82.05,1.48-8.59-5.63-15.68-14.27-14.27Z"/>
  <path class="cls-1" d="M249.55,120.18c8.64-1.42,15.74,5.68,14.27,14.27-12.28,26.8-22.26,55.54-34.94,82.05-1.24,2.59-2.23,5.68-4.23,7.77-2.18,2.28-5.38,3.28-8.15,4.6-26.01,12.44-54.19,22.05-80.34,34.41-9.18,3.48-18.64-5.59-15.65-14.9l37.73-87.52,3.98-3.52,87.33-37.17ZM188.07,168.2c-29.26,4.18-25.31,50.54,6.47,47.71,31.29-2.79,26.67-52.44-6.47-47.71Z"/>
  <path d="M188.07,168.2c33.14-4.74,37.76,44.92,6.47,47.71-31.78,2.83-35.72-43.52-6.47-47.71Z"/>
</svg>