<?xml version="1.0" encoding="UTF-8"?>
<svg id="Layer_1" data-name="Layer 1" xmlns="http://www.w3.org/2000/svg" viewBox="0 0 384 384">
  <defs>
    <style>
      .cls-1 {
        fill: none;
      }
      .cls-2 {
        opacity:1;
      }
    </style>
  </defs>
  <path class="cls-1" d="M183.06,0c-17.04,2.05-33.74,19.77-33.74,37.12v67.12c-7.21-3.26-13.47-8.56-21.26-10.61-19.84-5.22-34.84,3.01-45.33,19.38C54.21,157.55,30.16,207.36,2.75,252.76c-.79,2.65-2.32,6.35-2.64,8.99V0h182.94Z"/>
  <path class="cls-1" d="M384,201v183h-203.94c11.06-2.7,19.82-7.19,26.57-16.55l76.27-132.58c20.25-1.21,41.65,1.19,61.77-.09,20.82-1.32,34.99-13.36,39.33-33.78Z"/>
  <path d="M350.26,0c17.8,3.33,30.41,15.94,33.74,33.75v167.25c-4.34,20.42-18.51,32.46-39.33,33.78-20.12,1.28-41.52-1.12-61.77.09l-76.27,132.58c-6.75,9.36-15.5,13.86-26.57,16.55h-10.5c-5.79-1.32-10.26-3.21-15.5-5.87-46.34-23.52-91.1-55.08-137.25-79.46-9.35-6.67-14.48-15.91-16.7-27.17.26-3.12-.36-6.71,0-9.75.31-2.64,1.85-6.34,2.64-8.99,27.41-45.41,51.46-95.21,79.98-139.74,10.48-16.37,25.49-24.6,45.33-19.38,7.79,2.05,14.04,7.35,21.26,10.61V37.12c0-17.35,16.7-35.08,33.74-37.12h167.2ZM291.03,219.75h55.86c10.27,0,21.74-11.83,22.11-22.13l.03-160.52c-1.01-11.79-10.32-21.11-22.12-22.12h-159.01c-13.2.55-23.23,11.27-23.61,24.37l.15,73.41,46.92,27.4c2.64-.55,4.27-2.64,7.28-3.69,16.49-5.72,33.05,8.43,29.71,25.43,15.58,9.6,34,15.05,41,33.66,3.09,8.23,2.78,15.6,1.68,24.2ZM113.15,107.45c-9.65,1.42-14.44,8.57-19.17,16.08-26.85,42.7-49.56,89.27-76.28,132.2-6.01,11.86-1.27,25.52,9.92,32.13l136.03,78.43c16.48,7.33,25.82-.23,34.25-13.55,26.95-42.59,49.62-89.27,76.28-132.19,6.68-15.6.89-25.32-12.18-33.63-42.79-27.23-89.11-49.43-132.17-76.29-5.14-3.14-10.73-4.04-16.69-3.16Z"/>
  <path class="cls-1" d="M169.56,384H.12v-112.5c2.21,11.26,7.35,20.5,16.7,27.17,46.16,24.38,90.91,55.94,137.25,79.46,5.24,2.66,9.71,4.55,15.5,5.87Z"/>
  <path class="cls-1" d="M350.26,0h33.74v33.75c-3.33-17.81-15.94-30.42-33.74-33.75Z"/>
  <path class="cls-1" d="M113.15,107.45c5.96-.87,11.55.03,16.69,3.16,43.06,26.86,89.38,49.06,132.17,76.29,13.07,8.32,18.86,18.03,12.18,33.63-26.67,42.92-49.34,89.6-76.28,132.19-8.43,13.32-17.76,20.88-34.25,13.55L27.63,287.85c-11.19-6.61-15.94-20.27-9.92-32.13,26.72-42.93,49.44-89.49,76.28-132.2,4.72-7.51,9.52-14.66,19.17-16.08ZM142.41,204.96c-45.19,5.19-34.73,75.11,10.7,65.45,40.64-8.64,30.23-70.15-10.7-65.45Z"/>
  <path class="cls-1" d="M291.03,219.75c1.1-8.59,1.42-15.97-1.68-24.2-7-18.61-25.42-24.05-41-33.66,3.34-17.01-13.23-31.16-29.71-25.43-3.01,1.04-4.64,3.14-7.28,3.69l-46.92-27.4-.15-73.41c.38-13.1,10.42-23.82,23.61-24.38h159.01c11.8,1.02,21.11,10.34,22.12,22.13l-.03,160.52c-.37,10.3-11.84,22.13-22.11,22.13h-55.86ZM210.32,92.74c22.05,22.02,54.75-13.9,30.08-33.47-22.46-17.82-49.53,14.04-30.08,33.47ZM305.88,54.17c-29.95,1.97-27.13,49.32,5.7,44.76,25.98-3.61,23.01-46.65-5.7-44.76ZM291.29,173.74c19.42,19.45,51.27-7.62,33.46-30.09-19.59-24.72-55.4,8.11-33.46,30.09Z"/>
  <path d="M142.41,204.96c40.93-4.7,51.34,56.81,10.7,65.45-45.43,9.66-55.89-60.26-10.7-65.45Z"/>
  <path d="M210.32,92.74c-19.45-19.43,7.62-51.28,30.08-33.47,24.67,19.57-8.04,55.49-30.08,33.47Z"/>
  <path d="M291.29,173.74c-21.94-21.98,13.87-54.81,33.46-30.09,17.81,22.47-14.04,49.55-33.46,30.09Z"/>
  <path d="M305.88,54.17c28.71-1.88,31.67,41.15,5.7,44.76-32.83,4.56-35.64-42.8-5.7-44.76Z"/>
</svg>