<?xml version="1.0" encoding="UTF-8"?>
<svg id="Layer_1" data-name="Layer 1" xmlns="http://www.w3.org/2000/svg" viewBox="0 0 294.91 294.91">
  <defs>
    <style>
      .cls-1 {
        fill: none;
      }
      .cls-2 {
        opacity:1;
      }
    </style>
  </defs>
  <path class="cls-1" d="M77.61.18c-44.4,4.59-44,72.16.84,75.29,50.62,3.53,54.87-70.17,7.79-75.29h121.87c-24.23,2.6-39.25,29.17-30.57,51.52,12.48,32.11,58.91,31.55,70.68-.81,8.1-22.25-7.07-48.16-30.91-50.72h77.61v294.73H0V.18h77.61ZM72.72,181.73c-7.57-1.12-17.72.83-25.58,0v-46.25c0-.31-1.33-3.05-1.71-3.47-1.62-1.8-5.12-1.92-7.14-.78-.74.42-2.65,3.16-2.65,3.67v46.82h-15.52v-48.55c0-17.06,17.32-32.43,33.61-33.63,17.04-1.25,39-.4,56.38,0,4.32.1,11.3,2.76,12.79-3.83,1.74-7.68-5-9.51-11.07-9.96-19.3-1.44-40.34,1.14-59.83,0-24.91,2.36-44.03,22.51-45.7,47.4-1.1,16.41.87,34.04.03,50.57,1.14,8.14,6.17,11.69,14.09,12.35,16.36,1.36,34.54-.94,51.09-.06,10.46-1.27,9.53-13.07,1.21-14.3ZM274.22,132.04v49.7h-15.52v-46.82c0-3.95-7.18-6.1-10.03-2.55-.29.36-1.47,2.92-1.47,3.13v46.25h-25.01c-2.52,0-5.48,2.12-6.43,4.49-2.16,5.41,1.84,9.31,7.07,9.81,16.55-.89,34.73,1.42,51.09.06,7.91-.66,12.95-4.2,14.09-12.35-.86-16.71,1.17-34.58.03-51.15-1.66-24.22-20.95-44.42-45.13-46.82-19.68,1.15-40.92-1.45-60.41,0-6.03.45-13.25,2.5-10.8,10.27,1.98,6.3,8.24,3.63,12.53,3.51,17.29-.47,40.04-1.32,56.96,0,16.7,1.31,31.35,15.85,33.03,32.48ZM173.99,108.39c-33.55-33.19-86.29,14.38-55.55,51.2,33.3,39.88,92.54-14.6,55.55-51.2ZM75.51,290.69c2.17,2.17,5.62,3.49,8.68,3.67h126.52c6.12-.54,10.5-4.82,11.71-10.7-.74-17.31,1.15-35.65.08-52.83-1.7-27.33-23.89-45.37-50.31-46.82-15.47-.85-38.16-1.1-53.48.03-24.29,1.79-45.2,21.66-46.88,46.22-1.18,17.14.93,35.6.02,52.88.28,2.47,1.92,5.81,3.66,7.55Z"/>
  <path d="M217.3.18c23.84,2.56,39.01,28.47,30.91,50.72-11.78,32.36-58.21,32.92-70.68.81-8.68-22.35,6.34-48.92,30.57-51.52,2.28-.24,6.92-.24,9.2,0ZM229.75,21.07c-21.89-22.31-56.47,11.7-33.74,34.01,22.05,21.64,55.59-11.73,33.74-34.01Z"/>
  <path d="M86.23.18c47.08,5.12,42.83,78.82-7.79,75.29C33.61,72.35,33.21,4.77,77.61.18c2.17-.22,6.46-.24,8.62,0ZM80.37,14.14c-31.53,1.73-28.58,50.78,4.42,47.51,29.09-2.88,26.95-49.23-4.42-47.51Z"/>
  <path d="M75.51,290.69c-1.74-1.74-3.38-5.08-3.66-7.55.91-17.28-1.2-35.75-.02-52.88,1.69-24.56,22.6-44.42,46.88-46.22,15.32-1.13,38.01-.88,53.48-.03,26.41,1.45,48.6,19.49,50.31,46.82,1.07,17.19-.82,35.53-.08,52.83-1.21,5.88-5.6,10.16-11.71,10.7h-126.52c-3.06-.19-6.52-1.5-8.68-3.68ZM208.68,280.55v-50.27c0-14.87-16.95-30.49-31.34-31.88-14.64-1.42-48.04-2.29-61.93.15-13.46,2.37-29.76,16.77-29.76,31.16v50.84h15.52v-47.97c0-1.55,4.07-3.85,5.96-3.72,2.45.18,5.54,3.13,5.54,5.44v46.25h68.99v-46.25c0-2.31,3.09-5.26,5.54-5.44,1.9-.14,5.96,2.16,5.96,3.72v47.97h15.52Z"/>
  <path d="M72.72,181.73c8.31,1.23,9.24,13.03-1.21,14.3-16.55-.89-34.73,1.42-51.09.06-7.91-.66-12.95-4.21-14.09-12.35.83-16.54-1.13-34.17-.03-50.57,1.67-24.89,20.79-45.03,45.7-47.4,19.49,1.14,40.53-1.44,59.83,0,6.06.45,12.81,2.27,11.07,9.96-1.49,6.59-8.47,3.93-12.79,3.83-17.38-.4-39.34-1.25-56.38,0-16.29,1.2-33.61,16.57-33.61,33.63v48.55h15.52v-46.82c0-.51,1.92-3.25,2.65-3.67,2.02-1.14,5.52-1.02,7.14.78.37.42,1.71,3.15,1.71,3.47v46.25c7.86.83,18.01-1.12,25.58,0Z"/>
  <path d="M274.22,132.04c-1.69-16.63-16.34-31.17-33.03-32.48-16.92-1.33-39.67-.47-56.96,0-4.29.12-10.54,2.79-12.53-3.51-2.45-7.77,4.77-9.82,10.8-10.27,19.49-1.45,40.73,1.15,60.41,0,24.18,2.4,43.47,22.6,45.13,46.82,1.14,16.57-.89,34.44-.03,51.15-1.14,8.15-6.17,11.69-14.09,12.35-16.36,1.36-34.54-.94-51.09-.06-5.23-.5-9.23-4.4-7.07-9.81.95-2.37,3.91-4.49,6.43-4.49h25.01v-46.25c0-.21,1.18-2.77,1.47-3.13,2.85-3.54,10.03-1.39,10.03,2.55v46.82h15.52v-49.7Z"/>
  <path d="M173.99,108.39c36.99,36.6-22.25,91.08-55.55,51.2-30.74-36.82,22-84.39,55.55-51.2ZM142.99,111.78c-27.24,3.92-25.02,47.56,4.4,47.49,32.94-.08,30.74-52.54-4.4-47.49Z"/>
  <path class="cls-1" d="M229.75,21.07c21.85,22.27-11.69,55.65-33.74,34.01-22.73-22.31,11.85-56.32,33.74-34.01Z"/>
  <path class="cls-1" d="M80.37,14.14c31.37-1.72,33.5,44.64,4.42,47.51-32.99,3.26-35.95-45.79-4.42-47.51Z"/>
  <path class="cls-1" d="M208.68,280.55h-15.52v-47.97c0-1.55-4.07-3.85-5.96-3.72-2.45.18-5.54,3.13-5.54,5.44v46.25h-68.99v-46.25c0-2.31-3.09-5.26-5.54-5.44-1.9-.14-5.96,2.16-5.96,3.72v47.97h-15.52v-50.84c0-14.38,16.3-28.79,29.76-31.16,13.89-2.44,47.28-1.57,61.93-.15,14.39,1.39,31.34,17.01,31.34,31.88v50.27Z"/>
  <path class="cls-1" d="M142.99,111.78c35.14-5.05,37.34,47.41,4.4,47.49-29.42.07-31.64-43.57-4.4-47.49Z"/>
</svg>