<?xml version="1.0" encoding="UTF-8"?>
<svg id="Layer_1" data-name="Layer 1" xmlns="http://www.w3.org/2000/svg" viewBox="0 0 201.44 201.44">
  <defs>
    <style>
      .cls-1 {
        fill: none;
      }
      .cls-2 {
        opacity:1;
      }
    </style>
  </defs>
  <path class="cls-1" d="M0,113.48V0h201.44v201.44H0v-85.21c1.63,4.65,7.05,5.89,10.61,2.56L100.38,29.09l89.67,89.31c6.67,6.29,15.14-1.84,8.65-8.65L105.44,16.48c-3.78-3.11-6.05-3.12-9.84,0L2.35,109.74l-2.35,3.74ZM161.39,113.29v62.24H39.66v-62.24c0-.17-1.54-2.65-1.87-2.95-4.21-3.83-10.22-.45-10.25,4.96,1.06,21.09-1.58,43.86-.06,64.76.32,4.4,1.66,7.23,6.48,7.66,45.02-.28,90.15.49,135.12-.39,3.33-.93,4.23-3.75,4.49-6.9,1.71-20.76-1.26-43.78,0-64.78.04-5.44-5.59-9.21-10.1-5.44-.53.44-1.96,2.56-2.07,3.08Z"/>
  <path d="M0,116.23v-2.75l2.35-3.74L95.61,16.48c3.78-3.12,6.06-3.11,9.84,0l93.26,93.26c6.48,6.81-1.99,14.94-8.65,8.65L100.38,29.09,10.61,118.79c-3.56,3.33-8.98,2.1-10.61-2.56Z"/>
  <path d="M161.39,113.29c.11-.52,1.54-2.64,2.07-3.08,4.51-3.77,10.14,0,10.1,5.44-1.26,20.99,1.71,44.02,0,64.78-.26,3.14-1.16,5.96-4.49,6.9-44.96.88-90.09.11-135.12.39-4.82-.43-6.16-3.25-6.48-7.66-1.52-20.9,1.13-43.66.06-64.76.03-5.42,6.04-8.8,10.25-4.96.33.3,1.87,2.78,1.87,2.95v62.24h121.73v-62.24Z"/>
</svg>