<?xml version="1.0" encoding="UTF-8"?>
<svg id="Layer_1" data-name="Layer 1" xmlns="http://www.w3.org/2000/svg" viewBox="0 0 409.6 409.6">
  <defs>
    <style>
      .cls-1 {
        fill: none;
      }
      .cls-2 {
        opacity:1;
      }
    </style>
  </defs>
  <path class="cls-1" d="M409.6,352.11v57.49H0V0h409.6v211.59l-17.7-35.4c-1.38-2.14-4.89-5.32-7.45-5.32h-93.82v-77.05c-6.5-11.1-11.26-26.39-18.21-36.88-1.37-2.07-3.04-4.1-5.51-4.87l-124.02.2c-1.56.88-3.07,1.62-4.23,3.04-7.1,8.66-13,28.31-18.89,38.51v60.28H24.35c-.9,0-4.29,2.64-5.07,3.71-2.76,3.78-18.06,35.26-18.49,39l-.02,153.32c.6,4.97,4.18,8.24,9.16,8.41l393.3-.42c3.45-1,4.49-3.35,6.36-6.01Z"/>
  <path d="M409.6,352.11c-1.87,2.66-2.91,5.01-6.36,6.01l-393.3.42c-4.98-.16-8.56-3.44-9.16-8.41l.02-153.32c.42-3.75,15.73-35.23,18.49-39,.78-1.07,4.17-3.71,5.07-3.71h95.41v-60.28c5.89-10.21,11.79-29.85,18.89-38.51,1.16-1.42,2.67-2.16,4.23-3.04l124.02-.2c2.47.76,4.14,2.79,5.51,4.87,6.95,10.5,11.7,25.78,18.21,36.88v77.05h93.82c2.57,0,6.07,3.18,7.45,5.32l17.7,35.4v140.53ZM267.48,86.23c-1.47-4.18-4.64-12.89-7.27-16.29-.8-1.03-1.28-1.42-2.67-1.33l-105.44.04c-1.03,0-1.36.58-1.91,1.28-2.63,3.39-5.8,12.11-7.27,16.29h124.56ZM273.07,103h-135.73v93.82c0,3.07-4.37,8.38-7.59,8.38H17.57v135.34l1.2,1.2h372.87l1.2-1.2v-117.37l-1.2-1.2h-112.58c-2.33,0-5.99-6.25-5.99-8.38v-110.58ZM119.77,170.87H32.34l-9.18,17.57h96.61v-17.57ZM379.26,188.43h-88.63v16.77h96.61l-7.98-16.77Z"/>
  <path class="cls-1" d="M273.07,103v110.58c0,2.13,3.66,8.38,5.99,8.38h112.58l1.2,1.2v117.37l-1.2,1.2H18.76l-1.2-1.2v-135.34h112.18c3.21,0,7.59-5.31,7.59-8.38v-93.82h135.73ZM205.2,166.87v65.07c0,.59,1.79,4.06,2.45,4.74,4.18,4.33,12.35,2.48,14.15-3.31v-90.68c-2.46-5.86-8.39-6.9-13.67-3.63-2.87,1.78-18.5,17.85-19.33,20.59-3.3,10.92,9.52,14.82,16.4,7.22ZM72.66,290.63c13.13-12.4,23.7-27.57,21.56-46.71-2.44-21.84-32.59-29.55-45.7-11.36-4.69,6.51-9.21,22.3,2.39,23.59,13.3,1.48,5.49-18.85,19.7-16.58,11.94,1.91,5.19,20.56.79,27.05-6.63,9.77-19.59,17.84-25.9,26.8-4,5.67-1.84,12.83,5.25,13.93,5.66.87,30.97.86,36.49-.14,5.48-.99,8.35-6.5,6.53-11.75-.39-1.12-4.1-4.83-4.75-4.83h-16.37ZM336.75,239.74c-11.81,1.72-22.77,15.22-20.53,27.3,1.29,6.94,11.87,8.42,15.46,1.97,1.92-3.45.76-7.65,4.49-10.68,7.03-5.72,16.53,2.06,12.8,10.41-3.05,6.84-16.39,2.51-15.99,13.44.35,9.51,10.48,6.49,14.64,10.94,5.72,6.12-.36,15.95-8.31,13.92-9.26-2.36-3.59-17.01-15.58-16.49-11.37.5-7.82,16.25-3.44,22.7,10.16,14.98,33.35,14.67,42.85-.8,6.3-10.25,3.98-21.23-2.11-30.88,14.44-19.33.22-45.42-24.3-41.83Z"/>
  <path class="cls-1" d="M267.48,86.23h-124.56c1.47-4.18,4.64-12.9,7.27-16.29.55-.71.88-1.28,1.91-1.28l105.44-.04c1.38-.1,1.87.3,2.67,1.33,2.63,3.39,5.8,12.11,7.27,16.29Z"/>
  <polygon class="cls-1" points="119.77 170.87 119.77 188.43 23.15 188.43 32.34 170.87 119.77 170.87"/>
  <polygon class="cls-1" points="379.26 188.43 387.24 205.2 290.63 205.2 290.63 188.43 379.26 188.43"/>
  <path d="M336.75,239.74c24.52-3.58,38.74,22.5,24.3,41.83,6.09,9.66,8.4,20.63,2.11,30.88-9.5,15.47-32.69,15.78-42.85.8-4.38-6.45-7.93-22.21,3.44-22.7,11.99-.52,6.32,14.12,15.58,16.49,7.94,2.03,14.03-7.8,8.31-13.92-4.16-4.45-14.29-1.42-14.64-10.94-.4-10.93,12.93-6.6,15.99-13.44,3.73-8.35-5.77-16.13-12.8-10.41-3.73,3.03-2.57,7.23-4.49,10.68-3.59,6.45-14.17,4.97-15.46-1.97-2.25-12.08,8.72-25.58,20.53-27.3Z"/>
  <path d="M72.66,290.63h16.37c.65,0,4.36,3.7,4.75,4.83,1.81,5.25-1.05,10.76-6.53,11.75-5.52,1-30.83,1.01-36.49.14-7.09-1.09-9.24-8.26-5.25-13.93,6.31-8.96,19.28-17.02,25.9-26.8,4.4-6.49,11.15-25.14-.79-27.05-14.21-2.27-6.4,18.05-19.7,16.58-11.61-1.29-7.09-17.08-2.39-23.59,13.11-18.19,43.26-10.49,45.7,11.36,2.14,19.15-8.43,34.32-21.56,46.71Z"/>
  <path d="M205.2,166.87c-6.88,7.59-19.7,3.7-16.4-7.22.83-2.73,16.46-18.81,19.33-20.59,5.28-3.27,11.21-2.23,13.67,3.63v90.68c-1.79,5.79-9.97,7.64-14.15,3.31-.66-.68-2.45-4.15-2.45-4.74v-65.07Z"/>
</svg>