<?xml version="1.0" encoding="UTF-8"?>
<svg id="Layer_1" data-name="Layer 1" xmlns="http://www.w3.org/2000/svg" viewBox="0 0 384 384">
  <defs>
    <style>
      .cls-1 {
        fill: none;
      }
      .cls-2 {
        opacity:1;
      }
    </style>
  </defs>
  <path class="cls-1" d="M384,0v384H0V0h384ZM43.33,12.21c-15.83,1.89-29.58,15.86-31.24,31.76-2.56,24.48,1.66,52.94-.03,77.84,2.58,13.27,20.47,13.75,23.75.64,2.22-24.1-2.36-51.92.18-75.57.68-6.4,5.33-10.35,11.6-10.9,23.63-2.09,50.26,1.68,74.21-.04,13.61-2.68,13.62-21.18,0-23.87-24.9,1.84-54.07-2.78-78.47.14ZM261.56,12.18c-13.73,3.57-12.49,22.56,2.04,23.85,23.27,2.06,50.55-2.49,73.53-.03,6.41.69,10.35,5.34,10.9,11.6,2.12,23.87-1.79,50.67.15,74.85,3.42,13.5,21.97,12.42,23.82-1.32-4.65-31.93,16.69-103.96-31.97-109.03-24.63-2.57-53.42,1.58-78.48.09h.01ZM69.56,60.18c-5.13,1.11-9.06,5.37-9.56,10.69,1.59,23.72-2.1,50.14-.03,73.53.6,6.79,4.79,11.02,11.62,11.62,23.18,2.05,49.31-1.62,72.81,0,6.72-.4,11.04-4.99,11.62-11.62,2.05-23.18-1.62-49.31,0-72.81-.18-6.07-4.87-11.01-10.9-11.6l-75.57.18h.01ZM300,84v38.62c0,.31,1.52,3.5,1.91,4.09,5.64,8.68,19.24,6.25,21.76-3.68-.93-16.32,2.42-37.02.27-52.85-.56-4.13-3.83-8.24-7.77-9.48l-126.61-.53c-10.33,2.11-13.19,16.11-4.27,21.91.59.38,3.78,1.91,4.09,1.91h110.62ZM189.55,108.18c-4.2.68-8.36,4.67-9.22,8.78-1.06,5.02-.92,22.7-.34,28.17,1.49,13.9,21.06,14.29,23.67,1.91,1.06-5.02.92-22.7.34-28.17-.79-7.38-7.18-11.87-14.45-10.69ZM252,132h14.62c1.74,0,6.03-3.32,7.13-4.87,5.79-8.19.4-18.3-9.35-19.16-6.11-.54-20.34-.7-26.21.1s-9.71,5.72-10.22,11.53c-2.09,23.59,1.57,50.3.1,74.21,2.68,13.62,21.19,13.61,23.87,0l.07-61.81h-.01ZM300,180c.4,7.72-2.28,17.72,5.73,22.39,7.75,4.52,17.32-.43,18.27-9.26.64-6.01.67-20.27,0-26.25s-5.02-10.25-10.88-10.88-20.27-.67-26.25,0c-9.36,1.05-14.1,11.4-8.63,19.13,5.03,7.11,14.27,4.38,21.76,4.87ZM69.56,180.18c-12.78,3.17-12.78,20.47,0,23.64l64.25.11c13.27-2.58,13.75-20.47.64-23.75h-64.89ZM177.56,180.18c-10.28,1.73-13.12,16.15-4.27,21.91,4.33,2.82,20.6,2.86,24.98.3,9.82-5.73,6.56-21.08-5.14-22.39-3.54-.4-12.13-.4-15.57.18ZM69.56,228.18c-5.13,1.11-9.06,5.37-9.56,10.69,1.59,23.72-2.1,50.14-.03,73.53.6,6.79,4.79,11.02,11.62,11.62,23.18,2.05,49.31-1.62,72.81,0,6.72-.4,11.04-4.99,11.62-11.62,2.05-23.18-1.62-49.31,0-72.81-.18-6.07-4.87-11.01-10.9-11.6l-75.57.18h.01ZM189.55,228.18c-4.71.76-8.84,5.26-9.49,10.01,1.47,23.92-2.18,50.62-.1,74.21,1.32,14.92,21.1,15.61,23.96,1.4-1.47-23.92,2.18-50.62.1-74.21-.69-7.78-6.66-12.68-14.48-11.41h.01ZM237.56,228.18c-5.13,1.11-9.06,5.37-9.56,10.69,1.59,23.72-2.1,50.14-.03,73.53.6,6.79,4.79,11.02,11.62,11.62,23.18,2.05,49.31-1.62,72.81,0,6.72-.4,11.04-4.99,11.62-11.62,2.05-23.18-1.62-49.31,0-72.81-.18-6.07-4.87-11.01-10.9-11.6l-75.57.18h.01ZM21.55,252.18c-5.23.85-9.56,6.11-9.58,11.41,4.64,32.13-16.7,103.86,32.67,108.39,24.09,2.21,51.34-1.65,75.77.04,13.93-1,15.96-19.65,2.64-23.7l-76.17-.33c-6.42-.8-10.34-5.24-10.9-11.6-2.12-23.87,1.79-50.67-.15-74.85-1.57-6.7-7.45-10.48-14.27-9.37h0ZM357.55,252.18c-4.71.76-8.84,5.26-9.49,10.01-1.72,23.95,2.06,50.58-.04,74.21-.56,6.35-4.48,10.8-10.9,11.6l-76.17.33c-13.33,4.05-11.3,22.7,2.64,23.7,32.14-4.64,103.86,16.7,108.39-32.67,2.23-24.31-1.65-51.84.01-76.49-.92-7.38-7.07-11.89-14.45-10.69h0Z"/>
  <path d="M69.56,60.18l75.57-.18c6.03.59,10.73,5.53,10.9,11.6-1.62,23.5,2.05,49.63,0,72.81-.59,6.64-4.91,11.23-11.62,11.62-23.5-1.62-49.63,2.05-72.81,0-6.83-.6-11.02-4.83-11.62-11.62-2.07-23.39,1.61-49.81.03-73.53.5-5.32,4.43-9.59,9.56-10.69h-.01ZM132,84h-48v48h48v-48Z"/>
  <path d="M69.56,228.18l75.57-.18c6.03.59,10.73,5.53,10.9,11.6-1.62,23.5,2.05,49.63,0,72.81-.59,6.64-4.91,11.23-11.62,11.62-23.5-1.62-49.63,2.05-72.81,0-6.83-.6-11.02-4.83-11.62-11.62-2.07-23.39,1.61-49.81.03-73.53.5-5.32,4.43-9.59,9.56-10.69h-.01ZM132,252h-48v48h48v-48Z"/>
  <path d="M237.56,228.18l75.57-.18c6.03.59,10.73,5.53,10.9,11.6-1.62,23.5,2.05,49.63,0,72.81-.59,6.64-4.91,11.23-11.62,11.62-23.5-1.62-49.63,2.05-72.81,0-6.83-.6-11.02-4.83-11.62-11.62-2.07-23.39,1.61-49.81.03-73.53.5-5.32,4.43-9.59,9.56-10.69h-.01ZM300,252h-48v48h48v-48Z"/>
  <path d="M43.33,12.21c24.4-2.92,53.58,1.69,78.47-.14,13.62,2.69,13.61,21.19,0,23.87-23.96,1.72-50.58-2.06-74.21.04-6.26.55-10.91,4.51-11.6,10.9-2.53,23.66,2.05,51.47-.18,75.57-3.29,13.11-21.17,12.63-23.75-.64,1.69-24.9-2.53-53.36.03-77.84,1.66-15.9,15.41-29.86,31.24-31.76Z"/>
  <path d="M261.56,12.18c25.06,1.49,53.85-2.66,78.48-.09,48.66,5.08,27.32,77.1,31.97,109.03-1.85,13.74-20.4,14.81-23.82,1.32-1.94-24.18,1.97-50.98-.15-74.85-.55-6.25-4.5-10.91-10.9-11.6-22.98-2.46-50.27,2.09-73.53.03-14.53-1.29-15.77-20.28-2.04-23.85h-.01Z"/>
  <path d="M21.55,252.18c6.81-1.1,12.69,2.68,14.27,9.37,1.94,24.18-1.97,50.98.15,74.85.56,6.35,4.48,10.8,10.9,11.6l76.17.33c13.33,4.05,11.3,22.7-2.64,23.7-24.43-1.7-51.68,2.17-75.77-.04-49.37-4.54-28.03-76.26-32.67-108.39.03-5.3,4.36-10.57,9.58-11.41h0Z"/>
  <path d="M357.55,252.18c7.38-1.2,13.53,3.31,14.45,10.69-1.66,24.65,2.22,52.18-.01,76.49-4.54,49.37-76.26,28.03-108.39,32.67-13.93-1-15.96-19.65-2.64-23.7l76.17-.33c6.42-.8,10.34-5.24,10.9-11.6,2.09-23.63-1.68-50.26.04-74.21.65-4.75,4.78-9.25,9.49-10.01h0Z"/>
  <path d="M300,84h-110.62c-.31,0-3.5-1.52-4.09-1.91-8.92-5.8-6.06-19.8,4.27-21.91l126.61.53c3.94,1.25,7.2,5.36,7.77,9.48,2.15,15.83-1.2,36.53-.27,52.85-2.52,9.93-16.12,12.36-21.76,3.68-.38-.59-1.91-3.78-1.91-4.09v-38.62h0Z"/>
  <path d="M252,132l-.07,61.81c-2.68,13.61-21.18,13.62-23.87,0,1.47-23.92-2.19-50.63-.1-74.21.51-5.81,4.19-10.71,10.22-11.53s20.11-.63,26.21-.1c9.75.86,15.14,10.97,9.35,19.16-1.1,1.55-5.39,4.87-7.13,4.87h-14.62.01Z"/>
  <path d="M189.55,228.18c7.82-1.27,13.79,3.63,14.48,11.41,2.08,23.6-1.56,50.29-.1,74.21-2.86,14.21-22.65,13.52-23.96-1.4-2.08-23.6,1.56-50.29.1-74.21.65-4.75,4.78-9.25,9.49-10.01h-.01Z"/>
  <path d="M69.56,180.18h64.89c13.11,3.29,12.63,21.17-.64,23.75l-64.25-.11c-12.78-3.17-12.78-20.47,0-23.64Z"/>
  <path d="M300,180c-7.49-.49-16.73,2.24-21.76-4.87-5.47-7.73-.73-18.08,8.63-19.13,5.98-.67,20.24-.64,26.25,0s10.22,4.99,10.88,10.88.64,20.24,0,26.25c-.95,8.84-10.52,13.78-18.27,9.26-8.01-4.67-5.33-14.67-5.73-22.39Z"/>
  <path d="M189.55,108.18c7.27-1.18,13.66,3.31,14.45,10.69.59,5.47.72,23.15-.34,28.17-2.61,12.38-22.18,11.99-23.67-1.91-.59-5.47-.72-23.15.34-28.17.86-4.1,5.02-8.1,9.22-8.78Z"/>
  <path d="M177.56,180.18c3.44-.58,12.03-.58,15.57-.18,11.69,1.31,14.95,16.66,5.14,22.39-4.38,2.56-20.64,2.52-24.98-.3-8.85-5.76-6.01-20.18,4.27-21.91h0Z"/>
  <rect class="cls-1" x="84" y="84" width="48" height="48"/>
  <rect class="cls-1" x="84" y="252" width="48" height="48"/>
  <rect class="cls-1" x="252" y="252" width="48" height="48"/>
</svg>