<?xml version="1.0" encoding="UTF-8"?>
<svg id="Layer_1" data-name="Layer 1" xmlns="http://www.w3.org/2000/svg" viewBox="0 0 409.6 409.6">
  <defs>
    <style>
      .cls-1 {
        fill: none;
      }
      .cls-2 {
        opacity:1;
      }
    </style>
  </defs>
  <path d="M162.08,409.6c-6.1-2.73-10.89-5.26-13.15-12l-8.11-51.16c-9.47-3.61-17.58-9.7-26.24-14.78-14.73,4.36-29.84,13.44-44.36,17.62-14.24,4.1-18.99-2.74-25.65-13.4-12.77-20.44-23.48-42.3-36.23-62.77-3.87-8.19-2.21-17.4,4.81-23.21l36.75-28.72c1.5-5.43-.46-11.12-.47-16.39-.01-4.26,2.63-13.07-.31-16.38l-38.36-30.31c-6.33-7.5-5.46-14.65-1.32-22.9,9.55-19.02,23.95-43.06,35.43-61.19,5.66-8.94,10.53-16.11,22.88-13.61l47.31,18.25,26.11-14.93,6.9-47.8c1.77-7.63,5.88-12.22,13.36-14.58,26.85.54,56.67-2.59,83.32-.58,7.69.58,14.09,4.63,16.71,12.03l7.76,50.92c9.53,3.81,17.89,9.71,26.58,15.01l45.57-18c12.65-3.13,17.56,2.59,23.64,12.19,11.47,18.11,26.58,43.24,35.93,62.28,4.08,8.31,5.07,15.33-1.33,22.9l-38.36,30.31c-2.86,3.23-.38,10.08-.34,13.96.07,6.46-1.56,12.49-.44,18.81,11.12,9.95,25.55,18.3,36.35,28.33,8.16,7.57,9.34,14.43,4.67,24.65-7.85,17.18-23.1,41.11-33.28,57.74-7.22,11.78-11.52,22.15-28.05,17.39-14.53-4.18-29.64-13.26-44.36-17.62-8.66,5.08-16.76,11.17-26.24,14.78l-8.25,51.82c-2.3,6.27-7.34,8.74-13.01,11.34h-86.23ZM197.05,137.57c-46.58,4.57-73.56,56.96-52.68,98.51,27.06,53.86,108.21,47.48,125.71-10.31,14.59-48.19-23.29-93.07-73.03-88.2Z"/>
  <path class="cls-1" d="M162.08,409.6H0V0h409.6v409.6h-161.28c5.67-2.6,10.7-5.07,13.01-11.34l8.25-51.82c9.47-3.61,17.58-9.7,26.24-14.78,14.73,4.36,29.84,13.44,44.36,17.62,16.53,4.76,20.83-5.61,28.05-17.39,10.19-16.63,25.43-40.56,33.28-57.74,4.67-10.23,3.49-17.08-4.67-24.65-10.8-10.03-25.23-18.37-36.35-28.33-1.12-6.31.51-12.34.44-18.81-.04-3.89-2.52-10.74.34-13.96l38.36-30.31c6.39-7.57,5.41-14.59,1.33-22.9-9.35-19.04-24.45-44.17-35.93-62.28-6.08-9.6-10.99-15.32-23.64-12.19l-45.57,18c-8.69-5.31-17.06-11.2-26.58-15.01l-7.76-50.92c-2.62-7.41-9.02-11.45-16.71-12.03-26.65-2.01-56.47,1.12-83.32.58-7.48,2.36-11.59,6.95-13.36,14.58l-6.9,47.8-26.11,14.93-47.31-18.25c-12.35-2.5-17.22,4.67-22.88,13.61-11.48,18.13-25.88,42.16-35.43,61.19-4.14,8.25-5.01,15.39,1.32,22.9l38.36,30.31c2.94,3.32.3,12.12.31,16.38.01,5.27,1.97,10.96.47,16.39l-36.75,28.72c-7.03,5.82-8.68,15.02-4.81,23.21,12.75,20.47,23.46,42.33,36.23,62.77,6.66,10.66,11.41,17.5,25.65,13.4,14.53-4.18,29.63-13.26,44.36-17.62,8.66,5.08,16.76,11.17,26.24,14.78l8.11,51.16c2.27,6.74,7.05,9.27,13.15,12Z"/>
  <path class="cls-1" d="M197.05,137.57c49.74-4.87,87.62,40.01,73.03,88.2-17.49,57.79-98.65,64.17-125.71,10.31-20.88-41.55,6.1-93.94,52.68-98.51Z"/>
</svg>