<?xml version="1.0" encoding="UTF-8"?>
<svg id="Layer_1" data-name="Layer 1" xmlns="http://www.w3.org/2000/svg" viewBox="0 0 409.6 409.6">
  <defs>
    <style>
      .cls-1 {
        fill: none;
      }
      .cls-2 {
        opacity:1;
      }
    </style>
  </defs>
  <path class="cls-1" d="M97.41,409.6H0V0h409.6v409.6h-97.41c34.13-2.9,60.53-28.34,63.07-62.69,4.24-57.33-15.7-148.92-88.25-148.93-10.93,0-26.3,13.68-36.05,19.03-28.85,15.83-60.98,16.5-90.2,1.09-9.94-5.24-26.83-19.97-37.43-20.12-52.31-.73-76.58,46.23-84.74,90.9-9.96,54.58-7.92,111.51,58.83,120.71ZM271.99,168.99c39.18-39.18,38.21-103.54-2.1-141.45-64.85-61-171.11-10.98-166.12,77.49,4.76,84.3,108.31,123.88,168.22,63.96Z"/>
  <path d="M312.19,409.6H97.41c-66.76-9.2-68.8-66.13-58.83-120.71,8.16-44.67,32.43-91.63,84.74-90.9,10.6.15,27.49,14.88,37.43,20.12,29.23,15.41,61.36,14.74,90.2-1.09,9.75-5.35,25.12-19.03,36.05-19.03,72.55,0,92.49,91.6,88.25,148.93-2.54,34.35-28.94,59.79-63.07,62.69Z"/>
  <path d="M271.99,168.99c-59.92,59.92-163.47,20.34-168.22-63.96-4.99-88.48,101.27-138.49,166.12-77.49,40.32,37.92,41.29,102.27,2.1,141.45Z"/>
</svg>